<svg xmlns="http://www.w3.org/2000/svg" width="20" height="20" viewBox="0 0 20 20">
    <defs>
        <style>
            .cls-1{fill:none}.cls-2{clip-path:url(#clip-path)}.cls-3{fill:#c8331b}
        </style>
        <clipPath id="clip-path">
            <path id="Rectangle_2" d="M0 0h20v20H0z" class="cls-1" data-name="Rectangle 2"/>
        </clipPath>
    </defs>
    <g id="Mask_Group_7" class="cls-2" data-name="Mask Group 7">
        <path id="thumbs-down" d="M19 2H6.27a3 3 0 0 0-2.95 2.46l-1.27 7A3 3 0 0 0 5 15h4.56L9 16.43A4.13 4.13 0 0 0 12.89 22a1 1 0 0 0 .91-.59L16.65 15H19a3 3 0 0 0 3-3V5a3 3 0 0 0-3-3zm-4 11.79l-2.72 6.12a2.13 2.13 0 0 1-1.38-2.78l.53-1.43A2 2 0 0 0 9.56 13H5a1.02 1.02 0 0 1-1-1.18l1.27-7a1 1 0 0 1 1-.82H15zM20 12a1 1 0 0 1-1 1h-2V4h2a1 1 0 0 1 1 1z" class="cls-3" transform="translate(-2 -2)"/>
    </g>
</svg>
