<svg xmlns="http://www.w3.org/2000/svg" width="20" height="20" viewBox="0 0 20 20">
    <defs>
        <style>
            .cls-1{fill:none}.cls-2{clip-path:url(#clip-path)}.cls-3{fill:#90918f}
        </style>
        <clipPath id="clip-path">
            <path id="Rectangle_2" d="M0 0h20v20H0z" class="cls-1" data-name="Rectangle 2"/>
        </clipPath>
    </defs>
    <g id="Mask_Group_9" class="cls-2" data-name="Mask Group 9">
        <path id="eye" d="M21.912 11.6C19.893 6.908 16.094 4 12 4s-7.9 2.908-9.921 7.6a1 1 0 0 0 0 .8C4.1 17.084 7.9 19.993 12 19.993s7.9-2.909 9.917-7.6a1 1 0 0 0-.005-.793zM12 17.994c-3.169 0-6.168-2.289-7.9-6C5.828 8.287 8.827 6 12 6s6.168 2.289 7.9 6c-1.736 3.7-4.735 5.994-7.9 5.994zM12 8a4 4 0 1 0 4 4 4 4 0 0 0-4-4zm0 6a2 2 0 1 1 2-2 2 2 0 0 1-2 2z" class="cls-3" transform="translate(-1.996 -1.996)"/>
    </g>
</svg>
