<svg xmlns="http://www.w3.org/2000/svg" width="28" height="26.047" viewBox="0 0 28 26.047">
    <defs>
        <style>
            .cls-1{fill:none}.cls-2{clip-path:url(#clip-path)}.cls-3{fill:#f9f9f9}
        </style>
        <clipPath id="clip-path">
            <path id="Rectangle_7" d="M0 0h28v26.047H0z" class="cls-1" data-name="Rectangle 7"/>
        </clipPath>
    </defs>
    <g id="Mask_Group_12" class="cls-2" data-name="Mask Group 12">
        <path id="twitter-alt" d="M20.345 4.731a.863.863 0 0 0-1.3-.742 6.458 6.458 0 0 1-1.617.685A4.448 4.448 0 0 0 14.511 3.6 4.517 4.517 0 0 0 10 7.973a9.525 9.525 0 0 1-5.882-3.388.873.873 0 0 0-.74-.315.862.862 0 0 0-.678.43 4.555 4.555 0 0 0-.209 4.117.9.9 0 0 0-.427.767 2.626 2.626 0 0 0 .023.379 4.477 4.477 0 0 0 1.354 2.86.862.862 0 0 0-.057.664 4.493 4.493 0 0 0 2.04 2.523 6.445 6.445 0 0 1-3.1.387.863.863 0 0 0-.574 1.583 11.174 11.174 0 0 0 6.05 1.783 11.04 11.04 0 0 0 10.762-8.084 11.07 11.07 0 0 0 .462-3.148v-.173a4.981 4.981 0 0 0 1.323-3.627zM17.49 7.5a.859.859 0 0 0-.2.606c.008.142.008.286.008.421a9.345 9.345 0 0 1-.392 2.66 9.225 9.225 0 0 1-9.1 6.845 9.443 9.443 0 0 1-2.2-.26 8.184 8.184 0 0 0 2.54-1.35.864.864 0 0 0-.519-1.542 2.77 2.77 0 0 1-1.911-.807q.194-.037.384-.091a.864.864 0 0 0-.069-1.678 2.761 2.761 0 0 1-1.943-1.49 4.575 4.575 0 0 0 .47.04.881.881 0 0 0 .849-.6.863.863 0 0 0-.346-.981 2.759 2.759 0 0 1-1.237-2.305c0-.057 0-.115.005-.171a11.235 11.235 0 0 0 7.087 3 .881.881 0 0 0 .706-.309.864.864 0 0 0 .178-.75 2.725 2.725 0 0 1-.075-.629 2.789 2.789 0 0 1 2.786-2.786 2.749 2.749 0 0 1 2.024.881.857.857 0 0 0 .8.257 8 8 0 0 0 1.046-.278A5.768 5.768 0 0 1 17.49 7.5z" class="cls-3" transform="translate(2.383 1.066)"/>
    </g>
</svg>
