<svg xmlns="http://www.w3.org/2000/svg" width="17.5" height="9.483" viewBox="0 0 17.5 9.483">
    <defs>
        <style>
            .cls-1{fill:#f9f9f9}
        </style>
    </defs>
    <path id="vk-icon" d="M9.6 15.776a.585.585 0 0 0 .62-.667c-.023-1.4.521-2.15 1.5-1.17 1.085 1.085 1.31 1.837 2.627 1.837h2.333c.589 0 .821-.19.821-.487 0-.629-1.036-1.74-1.914-2.555-1.229-1.141-1.287-1.168-.228-2.542 1.312-1.705 3.03-3.892 1.51-3.892h-2.9c-.563 0-.6.317-.8.79-.725 1.711-2.1 3.928-2.628 3.589-.548-.354-.359-1.587-.317-3.668.011-.55-.717-.71-1.131-.71-1.657 0-3.759-.034-3.109.087 1.145.214 1.035 2.692.769 3.762-.472 1.864-2.221-1.475-2.953-3.138-.176-.4-.23-.71-.857-.71H.574C.215 6.3 0 6.418 0 6.678A25.191 25.191 0 0 0 4.219 13.8 6.189 6.189 0 0 0 9.6 15.776z" class="cls-1" transform="translate(0 -6.297)"/>
</svg>
