<svg xmlns="http://www.w3.org/2000/svg" width="10" height="17.222" viewBox="0 0 10 17.222">
    <defs>
        <style>
            .cls-1{fill:#ff0202}
        </style>
    </defs>
    <path id="Yandex" d="M7.854 9.369h-1.17c-1.838 0-3.621-1.1-3.621-3.858 0-2.871 1.671-4.042 3.37-4.042h1.421v7.9zM9.692 0H6.516A5.427 5.427 0 0 0 .751 5.741a4.9 4.9 0 0 0 3.565 4.776L.055 16.855c-.139.207 0 .367.222.367h1.978a.328.328 0 0 0 .334-.16l3.872-6.223h1.393v6.223a.192.192 0 0 0 .194.16h1.728c.167 0 .223-.069.223-.183V.23C10 .069 9.887 0 9.692 0" class="cls-1" transform="translate(.001)"/>
</svg>
